<svg xmlns="http://www.w3.org/2000/svg" viewBox="0 0 960 600" width="960" height="600">
  <rect width="960" height="600" fill="#d9c49a"/>
  <rect width="960" height="60" fill="#d9c49a"/>
  <rect x="32" y="22" width="120" height="16" rx="3" fill="#0c1220"/>
  <g fill="#5f7a3f">
    <rect x="420" y="26" width="50" height="8" rx="4"/>
    <rect x="486" y="26" width="60" height="8" rx="4"/>
    <rect x="562" y="26" width="54" height="8" rx="4"/>
    <rect x="632" y="26" width="48" height="8" rx="4"/>
  </g>
  <rect x="820" y="16" width="116" height="28" rx="6" fill="#5f7a3f"/>
  <text x="846" y="35" font-family="Arial, sans-serif" font-size="12" fill="#ffffff">Cotacao</text>
  <line x1="0" y1="60" x2="960" y2="60" stroke="#5f7a3f" opacity="0.4"/>
  <g transform="translate(0,60)">
    <rect width="960" height="280" fill="#d9c49a"/>
    <text x="48" y="90" font-family="Georgia, serif" font-size="44" fill="#0c1220">Da terra</text>
    <text x="48" y="140" font-family="Georgia, serif" font-size="44" fill="#5f7a3f" font-style="italic">ao contrato,</text>
    <text x="48" y="190" font-family="Georgia, serif" font-size="44" fill="#0c1220">sem ruido.</text>
    <rect x="48" y="220" width="168" height="40" rx="6" fill="#0c1220"/>
    <text x="74" y="245" font-family="Arial, sans-serif" font-size="13" fill="#d9c49a">Falar com consultor</text>
    <!-- fields map panel -->
    <g transform="translate(570,40)">
      <rect width="360" height="208" rx="10" fill="#ffffff"/>
      <rect x="12" y="22" width="336" height="28" fill="#5f7a3f"/>
      <rect x="12" y="54" width="336" height="20" fill="#5f7a3f" opacity="0.75"/>
      <rect x="12" y="78" width="336" height="34" fill="#5f7a3f" opacity="0.55"/>
      <rect x="12" y="116" width="336" height="18" fill="#5f7a3f" opacity="0.85"/>
      <rect x="12" y="138" width="336" height="36" fill="#5f7a3f" opacity="0.65"/>
      <!-- pin -->
      <g transform="translate(250,100)">
        <path d="M 0 -34 C 18 -34 24 -20 24 -10 C 24 6 0 28 0 28 C 0 28 -24 6 -24 -10 C -24 -20 -18 -34 0 -34 Z" fill="#0c1220"/>
        <circle cx="0" cy="-14" r="8" fill="#d9c49a"/>
      </g>
      <rect x="12" y="180" width="120" height="18" rx="3" fill="#d9c49a"/>
      <text x="24" y="193" font-family="Arial, sans-serif" font-size="10" fill="#0c1220">Talhao 03 - 42ha</text>
    </g>
  </g>
  <g transform="translate(0,360)">
    <g>
      <rect x="32" y="16" width="296" height="160" rx="10" fill="#f0ead4" stroke="#5f7a3f" stroke-width="1.5"/>
      <g transform="translate(72,56)" fill="#5f7a3f">
        <path d="M 0 14 Q -14 -2 -18 -16 Q -4 -14 0 -2 Q 4 -14 18 -16 Q 14 -2 0 14 Z"/>
      </g>
      <rect x="56" y="96" width="216" height="10" rx="4" fill="#d8dce0"/>
      <rect x="56" y="116" width="170" height="10" rx="4" fill="#d8dce0"/>
    </g>
    <g>
      <rect x="332" y="16" width="296" height="160" rx="10" fill="#f0ead4" stroke="#5f7a3f" stroke-width="1.5"/>
      <g transform="translate(372,56)" stroke="#5f7a3f" stroke-width="2" fill="none">
        <polyline points="-20,10 -10,-4 2,6 16,-14"/>
        <line x1="-22" y1="14" x2="22" y2="14"/>
      </g>
      <rect x="356" y="96" width="216" height="10" rx="4" fill="#d8dce0"/>
      <rect x="356" y="116" width="190" height="10" rx="4" fill="#d8dce0"/>
    </g>
    <g>
      <rect x="632" y="16" width="296" height="160" rx="10" fill="#f0ead4" stroke="#5f7a3f" stroke-width="1.5"/>
      <g transform="translate(672,56)" fill="#5f7a3f">
        <path d="M 0 -18 C 10 -18 14 -8 14 -2 C 14 8 0 20 0 20 C 0 20 -14 8 -14 -2 C -14 -8 -10 -18 0 -18 Z"/>
        <circle cx="0" cy="-4" r="4" fill="#f0ead4"/>
      </g>
      <rect x="656" y="96" width="216" height="10" rx="4" fill="#d8dce0"/>
      <rect x="656" y="116" width="160" height="10" rx="4" fill="#d8dce0"/>
    </g>
  </g>
  <g transform="translate(0,520)">
    <rect width="960" height="80" fill="#0c1220"/>
    <g fill="#ffffff" opacity="0.85">
      <circle cx="140" cy="40" r="10"/>
      <rect x="160" y="34" width="120" height="5" rx="2"/>
      <rect x="160" y="44" width="90" height="5" rx="2"/>
      <circle cx="430" cy="40" r="10"/>
      <rect x="450" y="34" width="120" height="5" rx="2"/>
      <rect x="450" y="44" width="80" height="5" rx="2"/>
      <circle cx="720" cy="40" r="10"/>
      <rect x="740" y="34" width="120" height="5" rx="2"/>
      <rect x="740" y="44" width="100" height="5" rx="2"/>
    </g>
  </g>
</svg>
