<svg xmlns="http://www.w3.org/2000/svg" viewBox="0 0 960 600" width="960" height="600">
  <rect width="960" height="600" fill="#f4f6f5"/>
  <!-- nav -->
  <rect x="0" y="0" width="960" height="60" fill="#ffffff"/>
  <rect x="32" y="22" width="90" height="16" rx="3" fill="#0c1220"/>
  <g fill="#64748b">
    <rect x="420" y="26" width="50" height="8" rx="4"/>
    <rect x="486" y="26" width="60" height="8" rx="4"/>
    <rect x="562" y="26" width="54" height="8" rx="4"/>
    <rect x="632" y="26" width="48" height="8" rx="4"/>
  </g>
  <rect x="820" y="16" width="116" height="28" rx="6" fill="#2d9d8a"/>
  <text x="842" y="35" font-family="Arial, sans-serif" font-size="12" fill="#ffffff">Agendar</text>
  <line x1="0" y1="60" x2="960" y2="60" stroke="#d8dce0"/>
  <!-- hero -->
  <g transform="translate(0,60)">
    <rect width="960" height="280" fill="#f4f6f5"/>
    <text x="48" y="90" font-family="Georgia, serif" font-size="44" fill="#0c1220">Cuidado que</text>
    <text x="48" y="140" font-family="Georgia, serif" font-size="44" fill="#0c1220">comeca na</text>
    <text x="48" y="190" font-family="Georgia, serif" font-size="44" fill="#2d9d8a" font-style="italic">conversa.</text>
    <rect x="48" y="220" width="112" height="14" rx="7" fill="#0c1220"/>
    <rect x="170" y="220" width="96" height="14" rx="7" fill="#d8dce0"/>
    <!-- hero panel -->
    <rect x="570" y="36" width="340" height="208" rx="14" fill="#2d9d8a"/>
    <rect x="598" y="68" width="210" height="18" rx="4" fill="#ffffff" opacity="0.85"/>
    <rect x="598" y="96" width="150" height="10" rx="3" fill="#ffffff" opacity="0.55"/>
    <rect x="598" y="112" width="180" height="10" rx="3" fill="#ffffff" opacity="0.55"/>
    <rect x="598" y="150" width="240" height="62" rx="8" fill="#ffffff"/>
    <circle cx="624" cy="181" r="14" fill="#2d9d8a"/>
    <rect x="650" y="168" width="120" height="8" rx="4" fill="#0c1220"/>
    <rect x="650" y="184" width="90" height="8" rx="4" fill="#d8dce0"/>
  </g>
  <!-- cards -->
  <g transform="translate(0,360)">
    <g>
      <rect x="32" y="16" width="296" height="160" rx="10" fill="#ffffff" stroke="#d8dce0"/>
      <circle cx="72" cy="56" r="18" fill="#2d9d8a" opacity="0.2"/>
      <path d="M 62 56 L 70 64 L 84 48" stroke="#2d9d8a" stroke-width="3" fill="none"/>
      <rect x="56" y="96" width="216" height="10" rx="4" fill="#d8dce0"/>
      <rect x="56" y="116" width="170" height="10" rx="4" fill="#d8dce0"/>
    </g>
    <g>
      <rect x="332" y="16" width="296" height="160" rx="10" fill="#ffffff" stroke="#d8dce0"/>
      <rect x="358" y="40" width="40" height="30" rx="4" fill="#2d9d8a" opacity="0.2"/>
      <line x1="358" y1="56" x2="398" y2="56" stroke="#2d9d8a" stroke-width="2"/>
      <line x1="378" y1="40" x2="378" y2="70" stroke="#2d9d8a" stroke-width="2"/>
      <rect x="356" y="96" width="216" height="10" rx="4" fill="#d8dce0"/>
      <rect x="356" y="116" width="190" height="10" rx="4" fill="#d8dce0"/>
    </g>
    <g>
      <rect x="632" y="16" width="296" height="160" rx="10" fill="#ffffff" stroke="#d8dce0"/>
      <path d="M 656 60 Q 656 44 672 44 L 712 44 Q 728 44 728 60 L 728 72 Q 728 82 718 82 L 696 82 L 688 92 L 690 82 L 672 82 Q 656 82 656 72 Z" fill="#2d9d8a"/>
      <rect x="656" y="96" width="216" height="10" rx="4" fill="#d8dce0"/>
      <rect x="656" y="116" width="160" height="10" rx="4" fill="#d8dce0"/>
    </g>
  </g>
  <!-- trust strip -->
  <g transform="translate(0,520)">
    <rect width="960" height="80" fill="#0c1220"/>
    <g fill="#ffffff" opacity="0.85">
      <circle cx="140" cy="40" r="10"/>
      <rect x="160" y="34" width="120" height="5" rx="2"/>
      <rect x="160" y="44" width="90" height="5" rx="2"/>
      <circle cx="430" cy="40" r="10"/>
      <rect x="450" y="34" width="120" height="5" rx="2"/>
      <rect x="450" y="44" width="80" height="5" rx="2"/>
      <circle cx="720" cy="40" r="10"/>
      <rect x="740" y="34" width="120" height="5" rx="2"/>
      <rect x="740" y="44" width="100" height="5" rx="2"/>
    </g>
  </g>
</svg>
