<svg xmlns="http://www.w3.org/2000/svg" viewBox="0 0 960 600" width="960" height="600">
  <rect width="960" height="600" fill="#f4f6f5"/>
  <rect width="960" height="60" fill="#ffffff"/>
  <rect x="32" y="22" width="110" height="16" rx="3" fill="#0c1220"/>
  <g fill="#64748b">
    <rect x="420" y="26" width="50" height="8" rx="4"/>
    <rect x="486" y="26" width="60" height="8" rx="4"/>
    <rect x="562" y="26" width="54" height="8" rx="4"/>
    <rect x="632" y="26" width="48" height="8" rx="4"/>
  </g>
  <rect x="820" y="16" width="116" height="28" rx="6" fill="#c2410c"/>
  <text x="846" y="35" font-family="Arial, sans-serif" font-size="12" fill="#ffffff">Ver loja</text>
  <line x1="0" y1="60" x2="960" y2="60" stroke="#d8dce0"/>
  <g transform="translate(0,60)">
    <rect width="960" height="280" fill="#f4f6f5"/>
    <text x="48" y="90" font-family="Georgia, serif" font-size="44" fill="#0c1220">Da sua rua</text>
    <text x="48" y="140" font-family="Georgia, serif" font-size="44" fill="#c2410c" font-style="italic">pra cidade</text>
    <text x="48" y="190" font-family="Georgia, serif" font-size="44" fill="#0c1220">inteira.</text>
    <g transform="translate(48,220)">
      <path d="M 0 0 L 120 0 L 138 14 L 120 28 L 0 28 Z" fill="#c2410c"/>
      <circle cx="14" cy="14" r="4" fill="#f4f6f5"/>
      <text x="24" y="19" font-family="Arial, sans-serif" font-size="12" fill="#ffffff">Entrega no bairro</text>
    </g>
    <!-- hero: product grid -->
    <g transform="translate(570,40)">
      <g>
        <rect width="110" height="95" rx="8" fill="#ffffff" stroke="#d8dce0"/>
        <rect x="10" y="10" width="90" height="50" rx="4" fill="#c2410c" opacity="0.2"/>
        <circle cx="36" cy="34" r="12" fill="#c2410c"/>
        <rect x="10" y="70" width="70" height="6" rx="3" fill="#0c1220"/>
        <rect x="10" y="82" width="40" height="5" rx="2" fill="#d8dce0"/>
      </g>
      <g transform="translate(120,0)">
        <rect width="110" height="95" rx="8" fill="#ffffff" stroke="#d8dce0"/>
        <rect x="10" y="10" width="90" height="50" rx="4" fill="#c2410c" opacity="0.3"/>
        <rect x="26" y="20" width="48" height="30" rx="3" fill="#c2410c"/>
        <rect x="10" y="70" width="60" height="6" rx="3" fill="#0c1220"/>
        <rect x="10" y="82" width="40" height="5" rx="2" fill="#d8dce0"/>
      </g>
      <g transform="translate(240,0)">
        <rect width="110" height="95" rx="8" fill="#ffffff" stroke="#d8dce0"/>
        <rect x="10" y="10" width="90" height="50" rx="4" fill="#c2410c" opacity="0.25"/>
        <polygon points="40,20 64,20 70,50 34,50" fill="#c2410c"/>
        <rect x="10" y="70" width="64" height="6" rx="3" fill="#0c1220"/>
        <rect x="10" y="82" width="40" height="5" rx="2" fill="#d8dce0"/>
      </g>
      <g transform="translate(0,110)">
        <rect width="110" height="95" rx="8" fill="#ffffff" stroke="#d8dce0"/>
        <rect x="10" y="10" width="90" height="50" rx="4" fill="#c2410c" opacity="0.25"/>
        <path d="M 26 50 L 38 30 L 52 44 L 64 26 L 80 50 Z" fill="#c2410c"/>
        <rect x="10" y="70" width="60" height="6" rx="3" fill="#0c1220"/>
        <rect x="10" y="82" width="40" height="5" rx="2" fill="#d8dce0"/>
      </g>
      <g transform="translate(120,110)">
        <rect width="110" height="95" rx="8" fill="#ffffff" stroke="#d8dce0"/>
        <rect x="10" y="10" width="90" height="50" rx="4" fill="#c2410c" opacity="0.3"/>
        <circle cx="55" cy="35" r="16" fill="#c2410c"/>
        <rect x="10" y="70" width="70" height="6" rx="3" fill="#0c1220"/>
        <rect x="10" y="82" width="40" height="5" rx="2" fill="#d8dce0"/>
      </g>
      <g transform="translate(240,110)">
        <rect width="110" height="95" rx="8" fill="#ffffff" stroke="#d8dce0"/>
        <rect x="10" y="10" width="90" height="50" rx="4" fill="#c2410c" opacity="0.25"/>
        <rect x="26" y="20" width="56" height="30" rx="15" fill="#c2410c"/>
        <rect x="10" y="70" width="64" height="6" rx="3" fill="#0c1220"/>
        <rect x="10" y="82" width="40" height="5" rx="2" fill="#d8dce0"/>
      </g>
    </g>
  </g>
  <g transform="translate(0,360)">
    <g>
      <rect x="32" y="16" width="296" height="160" rx="10" fill="#ffffff" stroke="#d8dce0"/>
      <g transform="translate(72,56)">
        <path d="M -16 -4 L -12 -16 L 14 -16 L 18 -4 Z" fill="#c2410c"/>
        <rect x="-16" y="-4" width="34" height="14" fill="#c2410c" opacity="0.5"/>
        <circle cx="-10" cy="14" r="4" fill="#0c1220"/>
        <circle cx="14" cy="14" r="4" fill="#0c1220"/>
      </g>
      <rect x="56" y="96" width="216" height="10" rx="4" fill="#d8dce0"/>
      <rect x="56" y="116" width="170" height="10" rx="4" fill="#d8dce0"/>
    </g>
    <g>
      <rect x="332" y="16" width="296" height="160" rx="10" fill="#ffffff" stroke="#d8dce0"/>
      <g transform="translate(372,56)" fill="#c2410c">
        <path d="M 0 -20 L 20 0 L 10 0 L 10 16 L -10 16 L -10 0 L -20 0 Z"/>
      </g>
      <rect x="356" y="96" width="216" height="10" rx="4" fill="#d8dce0"/>
      <rect x="356" y="116" width="190" height="10" rx="4" fill="#d8dce0"/>
    </g>
    <g>
      <rect x="632" y="16" width="296" height="160" rx="10" fill="#ffffff" stroke="#d8dce0"/>
      <g transform="translate(672,56)">
        <rect x="-18" y="-14" width="36" height="28" rx="4" fill="none" stroke="#c2410c" stroke-width="2"/>
        <line x1="-18" y1="-2" x2="18" y2="-2" stroke="#c2410c" stroke-width="2"/>
      </g>
      <rect x="656" y="96" width="216" height="10" rx="4" fill="#d8dce0"/>
      <rect x="656" y="116" width="160" height="10" rx="4" fill="#d8dce0"/>
    </g>
  </g>
  <g transform="translate(0,520)">
    <rect width="960" height="80" fill="#0c1220"/>
    <g fill="#ffffff" opacity="0.85">
      <circle cx="140" cy="40" r="10"/>
      <rect x="160" y="34" width="120" height="5" rx="2"/>
      <rect x="160" y="44" width="90" height="5" rx="2"/>
      <circle cx="430" cy="40" r="10"/>
      <rect x="450" y="34" width="120" height="5" rx="2"/>
      <rect x="450" y="44" width="80" height="5" rx="2"/>
      <circle cx="720" cy="40" r="10"/>
      <rect x="740" y="34" width="120" height="5" rx="2"/>
      <rect x="740" y="44" width="100" height="5" rx="2"/>
    </g>
  </g>
</svg>
