<svg xmlns="http://www.w3.org/2000/svg" viewBox="0 0 960 600" width="960" height="600">
  <rect width="960" height="600" fill="#0c1220"/>
  <rect width="960" height="60" fill="#0c1220"/>
  <rect x="32" y="22" width="120" height="16" rx="3" fill="#b78b4d"/>
  <g fill="#ffffff" opacity="0.65">
    <rect x="420" y="26" width="50" height="8" rx="4"/>
    <rect x="486" y="26" width="60" height="8" rx="4"/>
    <rect x="562" y="26" width="54" height="8" rx="4"/>
    <rect x="632" y="26" width="48" height="8" rx="4"/>
  </g>
  <rect x="820" y="16" width="116" height="28" rx="6" fill="#b78b4d"/>
  <text x="844" y="35" font-family="Arial, sans-serif" font-size="12" fill="#0c1220">Agendar call</text>
  <line x1="0" y1="60" x2="960" y2="60" stroke="#b78b4d" opacity="0.4"/>
  <g transform="translate(0,60)">
    <rect width="960" height="280" fill="#0c1220"/>
    <text x="48" y="90" font-family="Georgia, serif" font-size="44" fill="#f4f6f5">Reputacao</text>
    <text x="48" y="140" font-family="Georgia, serif" font-size="44" fill="#b78b4d" font-style="italic">antes do</text>
    <text x="48" y="190" font-family="Georgia, serif" font-size="44" fill="#f4f6f5">contrato.</text>
    <rect x="48" y="220" width="160" height="40" rx="6" fill="#b78b4d"/>
    <text x="74" y="245" font-family="Arial, sans-serif" font-size="13" fill="#0c1220">Agendar consultoria</text>
    <!-- seal panel -->
    <g transform="translate(770,150)">
      <circle r="108" fill="#0c1220" stroke="#b78b4d" stroke-width="1.2"/>
      <circle r="96" fill="none" stroke="#b78b4d" stroke-width="0.5"/>
      <g stroke="#b78b4d" stroke-width="1">
        <line x1="0" y1="-108" x2="0" y2="-96"/>
        <line x1="108" y1="0" x2="96" y2="0"/>
        <line x1="0" y1="108" x2="0" y2="96"/>
        <line x1="-108" y1="0" x2="-96" y2="0"/>
        <line x1="76" y1="-76" x2="68" y2="-68"/>
        <line x1="76" y1="76" x2="68" y2="68"/>
        <line x1="-76" y1="76" x2="-68" y2="68"/>
        <line x1="-76" y1="-76" x2="-68" y2="-68"/>
      </g>
      <text x="0" y="18" font-family="Georgia, serif" font-size="68" font-style="italic" fill="#b78b4d" text-anchor="middle">PF</text>
      <rect x="-54" y="48" width="108" height="16" fill="#b78b4d"/>
      <text x="0" y="60" font-family="Arial, sans-serif" font-size="10" fill="#0c1220" text-anchor="middle" letter-spacing="2">EST MMXXV</text>
    </g>
  </g>
  <g transform="translate(0,360)">
    <g>
      <rect x="32" y="16" width="296" height="160" rx="10" fill="#0c1220" stroke="#b78b4d" stroke-width="1"/>
      <g transform="translate(72,56)" fill="none" stroke="#b78b4d" stroke-width="2">
        <path d="M 0 -18 L 14 -10 L 14 8 Q 0 20 -14 8 L -14 -10 Z"/>
      </g>
      <rect x="56" y="96" width="216" height="10" rx="4" fill="#ffffff" opacity="0.15"/>
      <rect x="56" y="116" width="170" height="10" rx="4" fill="#ffffff" opacity="0.15"/>
    </g>
    <g>
      <rect x="332" y="16" width="296" height="160" rx="10" fill="#0c1220" stroke="#b78b4d" stroke-width="1"/>
      <g transform="translate(372,56)" fill="#b78b4d">
        <rect x="-18" y="-14" width="36" height="28" rx="3"/>
        <rect x="-14" y="-10" width="28" height="4" fill="#0c1220"/>
        <rect x="-14" y="-2" width="20" height="3" fill="#0c1220"/>
        <rect x="-14" y="4" width="24" height="3" fill="#0c1220"/>
      </g>
      <rect x="356" y="96" width="216" height="10" rx="4" fill="#ffffff" opacity="0.15"/>
      <rect x="356" y="116" width="190" height="10" rx="4" fill="#ffffff" opacity="0.15"/>
    </g>
    <g>
      <rect x="632" y="16" width="296" height="160" rx="10" fill="#0c1220" stroke="#b78b4d" stroke-width="1"/>
      <g transform="translate(672,56)" fill="#b78b4d">
        <polygon points="0,-18 4,-6 16,-6 6,2 10,14 0,6 -10,14 -6,2 -16,-6 -4,-6"/>
      </g>
      <rect x="656" y="96" width="216" height="10" rx="4" fill="#ffffff" opacity="0.15"/>
      <rect x="656" y="116" width="160" height="10" rx="4" fill="#ffffff" opacity="0.15"/>
    </g>
  </g>
  <g transform="translate(0,520)">
    <rect width="960" height="80" fill="#0c1220"/>
    <line x1="0" y1="0" x2="960" y2="0" stroke="#b78b4d" opacity="0.4"/>
    <g fill="#b78b4d" opacity="0.9">
      <circle cx="140" cy="40" r="10"/>
      <rect x="160" y="34" width="120" height="5" rx="2"/>
      <rect x="160" y="44" width="90" height="5" rx="2"/>
      <circle cx="430" cy="40" r="10"/>
      <rect x="450" y="34" width="120" height="5" rx="2"/>
      <rect x="450" y="44" width="80" height="5" rx="2"/>
      <circle cx="720" cy="40" r="10"/>
      <rect x="740" y="34" width="120" height="5" rx="2"/>
      <rect x="740" y="44" width="100" height="5" rx="2"/>
    </g>
  </g>
</svg>
