<svg xmlns="http://www.w3.org/2000/svg" viewBox="0 0 480 320" width="480" height="320">
  <rect width="480" height="320" fill="#ffffff"/>
  <rect width="480" height="320" fill="#cfe4ee" opacity="0.25"/>
  <!-- dental arc (abstract) -->
  <g transform="translate(240,170)">
    <path d="M -140 0 Q -140 -120 0 -120 Q 140 -120 140 0" fill="none" stroke="#0c1220" stroke-width="2" opacity="0.85"/>
    <g fill="#cfe4ee" stroke="#0c1220" stroke-width="1.2">
      <rect x="-130" y="-22" width="24" height="28" rx="6"/>
      <rect x="-100" y="-48" width="24" height="32" rx="6"/>
      <rect x="-70" y="-72" width="24" height="34" rx="7"/>
      <rect x="-40" y="-90" width="24" height="36" rx="7"/>
      <rect x="-8" y="-96" width="24" height="36" rx="7"/>
      <rect x="24" y="-90" width="24" height="36" rx="7"/>
      <rect x="56" y="-72" width="24" height="34" rx="7"/>
      <rect x="86" y="-48" width="24" height="32" rx="6"/>
      <rect x="116" y="-22" width="24" height="28" rx="6"/>
    </g>
    <!-- highlighted tooth -->
    <rect x="-8" y="-96" width="24" height="36" rx="7" fill="#2d9d8a"/>
  </g>
  <!-- checklist -->
  <g transform="translate(40,40)">
    <rect width="140" height="96" rx="8" fill="#ffffff" stroke="#cfe4ee" stroke-width="2"/>
    <g>
      <circle cx="18" cy="22" r="6" fill="#2d9d8a"/>
      <path d="M 14 22 L 17 25 L 22 19" stroke="#ffffff" stroke-width="1.5" fill="none"/>
      <rect x="32" y="18" width="86" height="8" rx="4" fill="#cfe4ee"/>
    </g>
    <g>
      <circle cx="18" cy="48" r="6" fill="#2d9d8a"/>
      <path d="M 14 48 L 17 51 L 22 45" stroke="#ffffff" stroke-width="1.5" fill="none"/>
      <rect x="32" y="44" width="72" height="8" rx="4" fill="#cfe4ee"/>
    </g>
    <g>
      <circle cx="18" cy="74" r="6" fill="none" stroke="#cfe4ee" stroke-width="2"/>
      <rect x="32" y="70" width="94" height="8" rx="4" fill="#cfe4ee" opacity="0.7"/>
    </g>
  </g>
  <!-- chip -->
  <rect x="360" y="48" width="84" height="22" rx="11" fill="#0c1220"/>
  <text x="372" y="63" font-family="Arial, sans-serif" font-size="11" fill="#ffffff">Em dia</text>
  <!-- label -->
  <text x="24" y="298" font-family="Georgia, serif" font-size="20" fill="#0c1220">Odontologia</text>
</svg>
