<svg xmlns="http://www.w3.org/2000/svg" viewBox="0 0 960 600" width="960" height="600">
  <rect width="960" height="600" fill="#f4f6f5"/>
  <rect width="960" height="60" fill="#ffffff"/>
  <rect x="32" y="22" width="100" height="16" rx="3" fill="#0c1220"/>
  <g fill="#64748b">
    <rect x="420" y="26" width="50" height="8" rx="4"/>
    <rect x="486" y="26" width="60" height="8" rx="4"/>
    <rect x="562" y="26" width="54" height="8" rx="4"/>
    <rect x="632" y="26" width="48" height="8" rx="4"/>
  </g>
  <rect x="820" y="16" width="116" height="28" rx="6" fill="#d9a441"/>
  <text x="846" y="35" font-family="Arial, sans-serif" font-size="12" fill="#0c1220">Marcar</text>
  <line x1="0" y1="60" x2="960" y2="60" stroke="#d8dce0"/>
  <g transform="translate(0,60)">
    <rect width="960" height="280" fill="#f4f6f5"/>
    <text x="48" y="90" font-family="Georgia, serif" font-size="44" fill="#0c1220">Vacina,</text>
    <text x="48" y="140" font-family="Georgia, serif" font-size="44" fill="#0c1220">banho e</text>
    <text x="48" y="190" font-family="Georgia, serif" font-size="44" fill="#d9a441" font-style="italic">carinho.</text>
    <rect x="48" y="220" width="140" height="40" rx="6" fill="#0c1220"/>
    <text x="76" y="245" font-family="Arial, sans-serif" font-size="13" fill="#ffffff">Agendar visita</text>
    <!-- hero: paw + agenda -->
    <g transform="translate(600,50)">
      <rect width="330" height="200" rx="14" fill="#d9a441" opacity="0.18"/>
      <g transform="translate(100,110)" fill="#d9a441">
        <ellipse cx="0" cy="20" rx="42" ry="34"/>
        <ellipse cx="-46" cy="-18" rx="14" ry="20"/>
        <ellipse cx="-20" cy="-40" rx="13" ry="20"/>
        <ellipse cx="20" cy="-40" rx="13" ry="20"/>
        <ellipse cx="46" cy="-18" rx="14" ry="20"/>
      </g>
      <g transform="translate(170,40)">
        <rect width="144" height="130" rx="10" fill="#ffffff"/>
        <rect x="16" y="16" width="80" height="8" rx="3" fill="#0c1220"/>
        <rect x="16" y="30" width="60" height="6" rx="3" fill="#d8dce0"/>
        <line x1="16" y1="52" x2="128" y2="52" stroke="#d8dce0"/>
        <circle cx="24" cy="68" r="7" fill="#d9a441"/>
        <rect x="38" y="64" width="84" height="7" rx="3" fill="#0c1220"/>
        <circle cx="24" cy="92" r="7" fill="#d9a441" opacity="0.4"/>
        <rect x="38" y="88" width="70" height="7" rx="3" fill="#0c1220"/>
        <circle cx="24" cy="116" r="7" fill="#d9a441" opacity="0.4"/>
        <rect x="38" y="112" width="60" height="7" rx="3" fill="#0c1220"/>
      </g>
    </g>
  </g>
  <g transform="translate(0,360)">
    <g>
      <rect x="32" y="16" width="296" height="160" rx="10" fill="#ffffff" stroke="#d8dce0"/>
      <g transform="translate(72,56)" fill="#d9a441">
        <ellipse cx="0" cy="6" rx="14" ry="11"/>
        <ellipse cx="-14" cy="-8" rx="5" ry="7"/>
        <ellipse cx="-4" cy="-14" rx="4" ry="6"/>
        <ellipse cx="6" cy="-14" rx="4" ry="6"/>
        <ellipse cx="14" cy="-8" rx="5" ry="7"/>
      </g>
      <rect x="56" y="96" width="216" height="10" rx="4" fill="#d8dce0"/>
      <rect x="56" y="116" width="170" height="10" rx="4" fill="#d8dce0"/>
    </g>
    <g>
      <rect x="332" y="16" width="296" height="160" rx="10" fill="#ffffff" stroke="#d8dce0"/>
      <rect x="356" y="40" width="38" height="32" rx="4" fill="#d9a441" opacity="0.3"/>
      <line x1="356" y1="54" x2="394" y2="54" stroke="#d9a441" stroke-width="2"/>
      <line x1="375" y1="40" x2="375" y2="72" stroke="#d9a441" stroke-width="2"/>
      <rect x="356" y="96" width="216" height="10" rx="4" fill="#d8dce0"/>
      <rect x="356" y="116" width="190" height="10" rx="4" fill="#d8dce0"/>
    </g>
    <g>
      <rect x="632" y="16" width="296" height="160" rx="10" fill="#ffffff" stroke="#d8dce0"/>
      <g transform="translate(672,56)" fill="none" stroke="#d9a441" stroke-width="2.5">
        <path d="M -16 -10 Q -20 -20 -10 -20 Q -4 -20 0 -14 Q 4 -20 10 -20 Q 20 -20 16 -10 Q 12 4 0 14 Q -12 4 -16 -10 Z"/>
      </g>
      <rect x="656" y="96" width="216" height="10" rx="4" fill="#d8dce0"/>
      <rect x="656" y="116" width="160" height="10" rx="4" fill="#d8dce0"/>
    </g>
  </g>
  <g transform="translate(0,520)">
    <rect width="960" height="80" fill="#0c1220"/>
    <g fill="#ffffff" opacity="0.85">
      <circle cx="140" cy="40" r="10"/>
      <rect x="160" y="34" width="120" height="5" rx="2"/>
      <rect x="160" y="44" width="90" height="5" rx="2"/>
      <circle cx="430" cy="40" r="10"/>
      <rect x="450" y="34" width="120" height="5" rx="2"/>
      <rect x="450" y="44" width="80" height="5" rx="2"/>
      <circle cx="720" cy="40" r="10"/>
      <rect x="740" y="34" width="120" height="5" rx="2"/>
      <rect x="740" y="44" width="100" height="5" rx="2"/>
    </g>
  </g>
</svg>
