<svg xmlns="http://www.w3.org/2000/svg" viewBox="0 0 960 600" width="960" height="600">
  <rect width="960" height="600" fill="#f4f6f5"/>
  <rect width="960" height="60" fill="#ffffff"/>
  <rect x="32" y="22" width="100" height="16" rx="3" fill="#0c1220"/>
  <g fill="#64748b">
    <rect x="420" y="26" width="50" height="8" rx="4"/>
    <rect x="486" y="26" width="60" height="8" rx="4"/>
    <rect x="562" y="26" width="54" height="8" rx="4"/>
    <rect x="632" y="26" width="48" height="8" rx="4"/>
  </g>
  <rect x="820" y="16" width="116" height="28" rx="6" fill="#c2410c"/>
  <text x="840" y="35" font-family="Arial, sans-serif" font-size="12" fill="#ffffff">Pedir orcamento</text>
  <line x1="0" y1="60" x2="960" y2="60" stroke="#d8dce0"/>
  <g transform="translate(0,60)">
    <rect width="960" height="280" fill="#f4f6f5"/>
    <text x="48" y="90" font-family="Georgia, serif" font-size="44" fill="#0c1220">Servico sem</text>
    <text x="48" y="140" font-family="Georgia, serif" font-size="44" fill="#0c1220">surpresa:</text>
    <text x="48" y="190" font-family="Georgia, serif" font-size="44" fill="#2d9d8a" font-style="italic">previsto do inicio.</text>
    <rect x="48" y="220" width="168" height="40" rx="6" fill="#0c1220"/>
    <text x="72" y="245" font-family="Arial, sans-serif" font-size="13" fill="#ffffff">Solicitar orcamento</text>
    <!-- panel with timeline -->
    <g transform="translate(560,36)">
      <rect width="360" height="210" rx="14" fill="#64748b" opacity="0.12"/>
      <g transform="translate(30,100)">
        <line x1="0" y1="0" x2="300" y2="0" stroke="#64748b" stroke-width="2"/>
        <g>
          <circle cx="0" cy="0" r="14" fill="#64748b"/>
          <circle cx="0" cy="0" r="6" fill="#f4f6f5"/>
          <text x="-34" y="-26" font-family="Arial, sans-serif" font-size="11" fill="#0c1220">Orcamento</text>
          <rect x="-34" y="18" width="68" height="5" rx="2" fill="#d8dce0"/>
        </g>
        <g>
          <circle cx="150" cy="0" r="14" fill="#2d9d8a"/>
          <circle cx="150" cy="0" r="6" fill="#f4f6f5"/>
          <text x="128" y="-26" font-family="Arial, sans-serif" font-size="11" fill="#0c1220">Entrega</text>
          <rect x="118" y="18" width="64" height="5" rx="2" fill="#2d9d8a"/>
        </g>
        <g>
          <circle cx="300" cy="0" r="14" fill="#64748b" opacity="0.4"/>
          <circle cx="300" cy="0" r="6" fill="#f4f6f5"/>
          <text x="272" y="-26" font-family="Arial, sans-serif" font-size="11" fill="#0c1220">Pos-venda</text>
          <rect x="268" y="18" width="64" height="5" rx="2" fill="#d8dce0"/>
        </g>
      </g>
    </g>
  </g>
  <g transform="translate(0,360)">
    <g>
      <rect x="32" y="16" width="296" height="160" rx="10" fill="#ffffff" stroke="#d8dce0"/>
      <g transform="translate(72,56)">
        <rect x="-18" y="-16" width="36" height="30" rx="4" fill="none" stroke="#64748b" stroke-width="2"/>
        <line x1="-12" y1="-6" x2="12" y2="-6" stroke="#64748b" stroke-width="1.5"/>
        <line x1="-12" y1="2" x2="8" y2="2" stroke="#64748b" stroke-width="1.5"/>
      </g>
      <rect x="56" y="96" width="216" height="10" rx="4" fill="#d8dce0"/>
      <rect x="56" y="116" width="170" height="10" rx="4" fill="#d8dce0"/>
    </g>
    <g>
      <rect x="332" y="16" width="296" height="160" rx="10" fill="#ffffff" stroke="#d8dce0"/>
      <g transform="translate(372,56)" fill="none" stroke="#2d9d8a" stroke-width="2.5">
        <circle r="18"/>
        <polyline points="-8,0 -2,6 10,-6"/>
      </g>
      <rect x="356" y="96" width="216" height="10" rx="4" fill="#d8dce0"/>
      <rect x="356" y="116" width="190" height="10" rx="4" fill="#d8dce0"/>
    </g>
    <g>
      <rect x="632" y="16" width="296" height="160" rx="10" fill="#ffffff" stroke="#d8dce0"/>
      <g transform="translate(672,56)" fill="none" stroke="#64748b" stroke-width="2.5">
        <circle r="16"/>
        <line x1="0" y1="-8" x2="0" y2="0"/>
        <line x1="0" y1="0" x2="8" y2="4"/>
      </g>
      <rect x="656" y="96" width="216" height="10" rx="4" fill="#d8dce0"/>
      <rect x="656" y="116" width="160" height="10" rx="4" fill="#d8dce0"/>
    </g>
  </g>
  <g transform="translate(0,520)">
    <rect width="960" height="80" fill="#0c1220"/>
    <g fill="#ffffff" opacity="0.85">
      <circle cx="140" cy="40" r="10"/>
      <rect x="160" y="34" width="120" height="5" rx="2"/>
      <rect x="160" y="44" width="90" height="5" rx="2"/>
      <circle cx="430" cy="40" r="10"/>
      <rect x="450" y="34" width="120" height="5" rx="2"/>
      <rect x="450" y="44" width="80" height="5" rx="2"/>
      <circle cx="720" cy="40" r="10"/>
      <rect x="740" y="34" width="120" height="5" rx="2"/>
      <rect x="740" y="44" width="100" height="5" rx="2"/>
    </g>
  </g>
</svg>
