<svg width="1600" height="2000" viewBox="0 0 1600 2000" fill="none" xmlns="http://www.w3.org/2000/svg">
  <defs>
    <linearGradient id="bg2" x1="220" y1="140" x2="1360" y2="1840" gradientUnits="userSpaceOnUse">
      <stop stop-color="#FFF7F2"/>
      <stop offset="1" stop-color="#ECDAC8"/>
    </linearGradient>
    <linearGradient id="panel" x1="330" y1="320" x2="1260" y2="1640" gradientUnits="userSpaceOnUse">
      <stop stop-color="#FFFDFB"/>
      <stop offset="1" stop-color="#F7EBE2"/>
    </linearGradient>
    <linearGradient id="accent2" x1="0" y1="0" x2="1" y2="1">
      <stop stop-color="#DA7F74"/>
      <stop offset="1" stop-color="#BF6E65"/>
    </linearGradient>
    <filter id="shadow2" x="250" y="262" width="1100" height="1546" filterUnits="userSpaceOnUse" color-interpolation-filters="sRGB">
      <feFlood flood-opacity="0" result="BackgroundImageFix"/>
      <feColorMatrix in="SourceAlpha" type="matrix" values="0 0 0 0 0 0 0 0 0 0 0 0 0 0 0 0 0 0 127 0" result="hardAlpha"/>
      <feOffset dy="28"/>
      <feGaussianBlur stdDeviation="34"/>
      <feColorMatrix type="matrix" values="0 0 0 0 0.290196 0 0 0 0 0.203922 0 0 0 0 0.14902 0 0 0 0.18 0"/>
      <feBlend mode="normal" in2="BackgroundImageFix" result="effect1_dropShadow_1_2"/>
      <feBlend mode="normal" in="SourceGraphic" in2="effect1_dropShadow_1_2" result="shape"/>
    </filter>
  </defs>
  <rect width="1600" height="2000" fill="url(#bg2)"/>
  <circle cx="1274" cy="294" r="240" fill="#EDD7C7" fill-opacity="0.62"/>
  <circle cx="272" cy="1650" r="214" fill="#E7CFBE" fill-opacity="0.68"/>
  <rect x="118" y="118" width="1364" height="1764" rx="64" fill="#F9EEE4" fill-opacity="0.38" stroke="#E7D7C7"/>
  <g filter="url(#shadow2)">
    <rect x="308" y="326" width="984" height="1410" rx="56" fill="url(#panel)"/>
    <rect x="308.75" y="326.75" width="982.5" height="1408.5" rx="55.25" stroke="#E6D7C8" stroke-width="1.5"/>
    <rect x="384" y="408" width="394" height="50" rx="25" fill="url(#accent2)"/>
    <text x="432" y="441" fill="white" font-family="Arial, Helvetica, sans-serif" font-size="28" letter-spacing="0.16em">VALE PRESENTE PREMIUM</text>
    <text x="384" y="568" fill="#3D2F23" font-family="Georgia, 'Times New Roman', serif" font-size="106" font-weight="700">Experiência</text>
    <text x="384" y="676" fill="#3D2F23" font-family="Georgia, 'Times New Roman', serif" font-size="106" font-weight="700">Encanto</text>
    <text x="386" y="754" fill="#7F6451" font-family="Arial, Helvetica, sans-serif" font-size="38" letter-spacing="0.08em">RITUAL TERAPÊUTICO + CARTÃO ILUSTRADO</text>
    <rect x="384" y="824" width="842" height="2" fill="#E6D7C8"/>
    <rect x="384" y="888" width="356" height="470" rx="34" fill="#F4E7DC"/>
    <rect x="416" y="920" width="292" height="406" rx="28" fill="#FFF8F3" stroke="#E7D5C4"/>
    <circle cx="562" cy="1034" r="84" fill="#F1D2C8"/>
    <path d="M512 1106c18-48 74-80 128-66 12 4 23 9 32 16" stroke="#D47E72" stroke-width="12" stroke-linecap="round"/>
    <circle cx="528" cy="1006" r="10" fill="#6A5443"/>
    <circle cx="596" cy="1006" r="10" fill="#6A5443"/>
    <path d="M532 1056c14 14 48 14 62 0" stroke="#6A5443" stroke-width="10" stroke-linecap="round"/>
    <text x="462" y="1222" fill="#A07466" font-family="Arial, Helvetica, sans-serif" font-size="24" letter-spacing="0.18em">CARTÃO ILUSTRADO</text>
    <text x="448" y="1272" fill="#3D2F23" font-family="Georgia, 'Times New Roman', serif" font-size="54" font-style="italic">Personalizado</text>
    <g fill="#5E4B3C" font-family="Arial, Helvetica, sans-serif" font-size="42">
      <circle cx="824" cy="962" r="9" fill="#B8837A"/>
      <text x="860" y="976">Reflexologia podal terapêutica</text>
      <circle cx="824" cy="1052" r="9" fill="#B8837A"/>
      <text x="860" y="1066">Escalda-pés especial com atmosfera premium</text>
      <circle cx="824" cy="1142" r="9" fill="#B8837A"/>
      <text x="860" y="1156">Vale presente em PDF personalizado</text>
      <circle cx="824" cy="1232" r="9" fill="#B8837A"/>
      <text x="860" y="1246">Cartão ilustrado para surpreender no aniversário</text>
    </g>
    <rect x="384" y="1454" width="842" height="188" rx="32" fill="#F8F0E8"/>
    <text x="432" y="1528" fill="#A17C63" font-family="Arial, Helvetica, sans-serif" font-size="28" letter-spacing="0.22em">PRESENTE COM ASSINATURA ZL</text>
    <text x="432" y="1592" fill="#5E4B3C" font-family="Arial, Helvetica, sans-serif" font-size="36">Feito para celebrar com cuidado, ritual e presença.</text>
  </g>
</svg>
